<svg width="15" height="15" viewBox="0 0 15 15" fill="none" xmlns="http://www.w3.org/2000/svg">
<path d="M8.25879 7.5L12.104 2.9165C12.1685 2.84033 12.1143 2.72461 12.0146 2.72461H10.8457C10.7769 2.72461 10.7109 2.75537 10.6655 2.80811L7.49414 6.58887L4.32275 2.80811C4.2788 2.75537 4.21289 2.72461 4.14257 2.72461H2.97363C2.87402 2.72461 2.81982 2.84033 2.88427 2.9165L6.72949 7.5L2.88427 12.0835C2.86983 12.1005 2.86057 12.1212 2.85758 12.1433C2.8546 12.1654 2.85801 12.1879 2.86742 12.2081C2.87683 12.2283 2.89183 12.2454 2.91066 12.2573C2.92949 12.2692 2.95134 12.2755 2.97363 12.2754H4.14257C4.21142 12.2754 4.27734 12.2446 4.32275 12.1919L7.49414 8.41113L10.6655 12.1919C10.7095 12.2446 10.7754 12.2754 10.8457 12.2754H12.0146C12.1143 12.2754 12.1685 12.1597 12.104 12.0835L8.25879 7.5Z" fill="#9E9E9E"/>
</svg>
