<svg width="26" height="27" viewBox="0 0 26 27" fill="none" xmlns="http://www.w3.org/2000/svg">
<path d="M19.7531 20.9846L20.5969 20.1465C24.5006 20.274 24.5606 20.1371 24.7322 19.7359L25.8047 17.1249L25.8844 16.8774L25.7972 16.6609C25.7513 16.5465 25.6097 16.2052 23.1722 13.8812V12.6587C25.9847 9.94929 25.9247 9.81054 25.7644 9.41398L24.6966 6.77586C24.5363 6.38023 24.4753 6.22554 20.5997 6.33148L19.7559 5.45961C19.843 4.17533 19.7987 2.88551 19.6238 1.61023L19.515 1.36367L16.7269 0.144918C16.3163 -0.0425819 16.1719 -0.110082 13.5394 2.75679L12.3563 2.73898C9.64594 -0.154144 9.5175 -0.101644 9.11156 0.062418L6.51938 1.11054C6.11344 1.27461 5.97 1.33273 6.1275 5.27023L5.29031 6.10461C1.38844 5.97711 1.32844 6.11586 1.15875 6.51523L0.0843752 9.12711L0 9.37742L0.0881251 9.59492C0.134063 9.70742 0.27 10.0449 2.71313 12.3718V13.5905C-0.0993747 16.2999 -0.0384375 16.4387 0.122813 16.8362L1.18969 19.4771C1.35281 19.8812 1.41094 20.0246 5.28563 19.9234L6.12938 20.7999C6.04192 22.0822 6.08495 23.3701 6.25781 24.6437L6.36656 24.8921L9.1725 26.1184C9.58031 26.289 9.72188 26.3499 12.3469 23.4934L13.53 23.5084C16.2441 26.4052 16.3828 26.349 16.7794 26.1887L19.3659 25.1434C19.7747 24.9812 19.9172 24.924 19.7531 20.9846ZM8.63625 14.8684C8.30911 14.0134 8.24176 13.0809 8.44264 12.1878C8.64352 11.2947 9.10369 10.4808 9.7654 9.84831C10.4271 9.21577 11.2609 8.79276 12.1621 8.63233C13.0634 8.4719 13.9919 8.58122 14.8312 8.94655C15.6706 9.31189 16.3833 9.91697 16.8801 10.6859C17.3768 11.4548 17.6354 12.3533 17.6233 13.2686C17.6113 14.1839 17.3293 15.0753 16.8125 15.8309C16.2958 16.5865 15.5674 17.1727 14.7188 17.5159C13.5609 17.9686 12.2708 17.9443 11.1308 17.4481C9.99086 16.9519 9.0939 16.0243 8.63625 14.8684Z" fill="#9E9E9E"/>
</svg>
