<svg width="19" height="19" viewBox="0 0 19 19" fill="none" xmlns="http://www.w3.org/2000/svg">
<path d="M16.9952 7.19091C17.2841 6.41072 17.3675 5.66675 17.16 4.99908C17.0644 5.00769 16.9652 5.01214 16.8637 5.01214C13.8231 5.01214 8.44906 1.18928 8.04234 0.59375C6.36648 3.03495 2.85386 4.9118 1.26617 7.01664C0.623731 7.86837 0.302512 8.5022 0.941684 9.47655L7.63592 18.0779C7.93784 18.4867 8.52951 18.52 8.95078 18.1429C8.95078 18.1429 14.4406 11.0984 18.4065 8.91872C18.1085 8.33655 17.6124 7.75556 16.9952 7.19091ZM7.51925 16.2551L7.49134 16.2744L7.46611 16.2964C7.36378 16.3881 7.27288 16.4919 7.19536 16.6054L1.39501 9.15295C0.977309 8.50666 1.09576 8.16644 1.71059 7.35181C2.40795 6.42764 3.52242 5.53048 4.7025 4.58078C5.92918 3.59338 7.19268 2.57687 8.12072 1.42025C9.65259 2.68078 13.9374 5.46398 16.7099 5.56581C17.0424 8.83055 10.2731 14.3343 7.51925 16.2551Z" fill="black"/>
<path d="M5.93542 4.20316L13.4182 10.0664L13.6848 9.82775L6.13017 4.02859L5.93542 4.20316Z" fill="black"/>
<path d="M8.37393 7.32419L5.31137 4.76157C5.31137 4.76157 4.24559 5.442 2.95477 6.9344L5.67177 9.74343L8.37393 7.32419Z" fill="black"/>
<path d="M1.66425 8.33033L7.44381 15.4141L8.51107 14.459L2.34914 7.41388C2.34914 7.41388 1.81209 7.70452 1.66425 8.33033Z" fill="black"/>
<path d="M8.14032 8.73644L11.4977 11.7853L12.5643 10.8303L9.06865 7.90549L8.14032 8.73644Z" fill="black"/>
<path d="M6.28363 10.3986L9.3643 13.6951L10.4307 12.7404L7.21196 9.56769L6.28363 10.3986Z" fill="black"/>
<path d="M8.27006 3.19318L7.81733 4.4644L8.10114 4.67102L9.54247 3.3805L9.26044 3.20297L8.26739 4.09211L8.70647 2.85296L8.41197 2.66711L7.03833 3.89677L7.28444 4.07579L8.27006 3.19318Z" fill="black"/>
<path d="M9.50355 5.69377L9.77846 5.44707L8.93979 4.85095L9.32008 4.51073L10.0649 5.02076L10.3295 4.78355L9.57629 4.28065L9.89038 3.9998L10.7243 4.53923L10.9951 4.29727L9.84199 3.56934L8.38196 4.87648L9.50355 5.69377Z" fill="black"/>
<path d="M10.3969 6.34453L11.5366 5.65429L11.9097 5.41798L11.6621 5.73801L10.9289 6.73284L11.283 6.99082L13.4764 5.86299L13.0601 5.60026L11.8575 6.28842L11.5505 6.47426L11.7566 6.20321L12.4694 5.22738L12.0692 4.97504L10.9574 5.66409L10.662 5.85082L10.8653 5.59224L11.5386 4.64017L11.1634 4.40326L10.0765 6.11118L10.3969 6.34453Z" fill="black"/>
<path d="M14.5192 6.44367C14.2494 6.27416 13.9973 6.19311 13.7616 6.19786C13.5277 6.20291 13.3359 6.27327 13.1848 6.40864C13.0188 6.55708 12.963 6.71116 13.0176 6.87088C13.0497 6.96677 13.1518 7.10541 13.3261 7.28888L13.5063 7.47828C13.6138 7.58991 13.6829 7.68134 13.7132 7.75141C13.7429 7.82236 13.7284 7.88441 13.6699 7.93666C13.5698 8.02602 13.4395 8.04294 13.2795 7.98831C13.18 7.95058 13.0863 7.89912 13.001 7.83542C12.8318 7.71489 12.7496 7.59881 12.7516 7.48689C12.7528 7.42573 12.7864 7.35567 12.852 7.2767L12.4628 7.00536C12.2873 7.16241 12.2208 7.33756 12.2648 7.53202C12.309 7.72825 12.4595 7.92181 12.7208 8.11241C12.9811 8.3033 13.2403 8.40542 13.495 8.4167C13.7524 8.42769 13.9644 8.36 14.1277 8.21305C14.288 8.06995 14.345 7.91617 14.2993 7.75259C14.2702 7.6478 14.1885 7.52578 14.0567 7.38684L13.7613 7.07513C13.6488 6.95756 13.5817 6.87592 13.5588 6.82931C13.5232 6.75836 13.536 6.69572 13.5974 6.64109C13.6642 6.58113 13.7497 6.55678 13.8542 6.56717C13.9602 6.57756 14.0707 6.62002 14.1861 6.69423C14.2909 6.76192 14.3649 6.83198 14.4061 6.90442C14.47 7.01367 14.4521 7.11906 14.3542 7.21911L14.7927 7.50797C14.9749 7.33222 15.0319 7.14608 14.964 6.95044C14.8975 6.75658 14.7487 6.58736 14.5192 6.44367Z" fill="black"/>
</svg>
