<svg width="112" height="112" viewBox="0 0 112 112" fill="none" xmlns="http://www.w3.org/2000/svg">
<path d="M100.387 25.053C97.958 21.742 94.57 17.864 90.853 14.147C87.136 10.43 83.258 7.042 79.947 4.613C74.305 0.476 71.568 0 70 0H15.75C10.927 0 7 3.927 7 8.75V103.25C7 108.073 10.927 112 15.75 112H96.25C101.073 112 105 108.073 105 103.25V35C105 33.432 104.524 30.695 100.387 25.053ZM85.897 19.103C89.257 22.463 91.889 25.487 93.835 28H76.993V11.165C79.506 13.111 82.537 15.743 85.89 19.103H85.897ZM98 103.25C98 104.202 97.202 105 96.25 105H15.75C15.2876 104.995 14.8456 104.808 14.5186 104.481C14.1916 104.154 14.0055 103.712 14 103.25V8.75C14 7.805 14.805 7 15.75 7H70V31.5C70 32.4283 70.3687 33.3185 71.0251 33.9749C71.6815 34.6312 72.5717 35 73.5 35H98V103.25Z" fill="#E5E5E5"/>
</svg>
