<svg width="20" height="20" viewBox="0 0 20 20" fill="none" xmlns="http://www.w3.org/2000/svg">
<g clip-path="url(#clip0)">
<path d="M16.27 12.2675H16.2767C16.8133 12.2675 17.3392 12.2183 17.8483 12.1241L17.7958 12.1325C16.8408 15.5675 13.7408 18.0475 10.0617 18.0475H10.0133H10.0158C5.56333 18.0425 1.955 14.4341 1.95083 9.98164V9.98081C1.96128 8.22903 2.53704 6.52743 3.59244 5.12923C4.64785 3.73103 6.12649 2.71096 7.80833 2.22081L7.86583 2.20664C7.77475 2.70675 7.72957 3.21414 7.73083 3.72248V3.72831C7.735 8.44331 11.5558 12.2641 16.27 12.2683H16.2708L16.27 12.2675ZM10.005 0.391641C9.90574 0.257693 9.77357 0.151641 9.6213 0.0837544C9.46903 0.0158674 9.30181 -0.0115552 9.13583 0.00414145H9.14C4.01083 0.496641 0.0283333 4.76998 0 9.97997V9.98248C0.00666667 15.5116 4.4875 19.9925 10.0158 20H10.0667C15.2692 20 19.5392 16.0116 19.9875 10.9258L19.99 10.8883C20.0044 10.73 19.9797 10.5706 19.9183 10.4241C19.8568 10.2775 19.7604 10.1482 19.6375 10.0475L19.6358 10.0458C19.5117 9.94372 19.3642 9.87405 19.2066 9.84307C19.0489 9.81208 18.886 9.82076 18.7325 9.86831L18.7392 9.86664L18.3025 9.99664C17.6476 10.2114 16.9625 10.3197 16.2733 10.3175H16.2675C14.5214 10.3155 12.8475 9.62099 11.6128 8.38634C10.3782 7.15168 9.68365 5.4777 9.68167 3.73164V3.71664C9.68167 2.85831 9.84667 2.03831 10.1467 1.28747L10.1308 1.33164C10.1921 1.17627 10.2124 1.00774 10.1898 0.842252C10.1672 0.676764 10.1024 0.519871 10.0017 0.386641L10.0033 0.389141L10.005 0.391641Z" fill="#9E9E9E"/>
</g>
<defs>
<clipPath id="clip0">
<rect width="20" height="20" fill="white"/>
</clipPath>
</defs>
</svg>
