<svg width="34" height="34" viewBox="0 0 34 34" fill="none" xmlns="http://www.w3.org/2000/svg">
<path d="M7.08333 4.25H26.9167C27.6681 4.25 28.3888 4.54851 28.9201 5.07986C29.4515 5.61122 29.75 6.33189 29.75 7.08333V26.9167C29.75 27.6681 29.4515 28.3888 28.9201 28.9201C28.3888 29.4515 27.6681 29.75 26.9167 29.75H7.08333C6.33189 29.75 5.61122 29.4515 5.07986 28.9201C4.54851 28.3888 4.25 27.6681 4.25 26.9167V7.08333C4.25 6.33189 4.54851 5.61122 5.07986 5.07986C5.61122 4.54851 6.33189 4.25 7.08333 4.25ZM10.625 21.25C10.0614 21.25 9.52091 21.4739 9.1224 21.8724C8.72388 22.2709 8.5 22.8114 8.5 23.375C8.5 23.9386 8.72388 24.4791 9.1224 24.8776C9.52091 25.2761 10.0614 25.5 10.625 25.5C11.1886 25.5 11.7291 25.2761 12.1276 24.8776C12.5261 24.4791 12.75 23.9386 12.75 23.375C12.75 22.8114 12.5261 22.2709 12.1276 21.8724C11.7291 21.4739 11.1886 21.25 10.625 21.25ZM8.5 14.1667V17C10.7543 17 12.9163 17.8955 14.5104 19.4896C16.1045 21.0837 17 23.2457 17 25.5H19.8333C19.8333 22.4942 18.6393 19.6115 16.5139 17.4861C14.3885 15.3607 11.5058 14.1667 8.5 14.1667ZM8.5 8.5V11.3333C12.2572 11.3333 15.8606 12.8259 18.5173 15.4827C21.1741 18.1394 22.6667 21.7428 22.6667 25.5H25.5C25.5 20.9913 23.7089 16.6673 20.5208 13.4792C17.3327 10.2911 13.0087 8.5 8.5 8.5Z" fill="#01AB27"/>
</svg>
